<?xml version="1.0" encoding="UTF-8" standalone="no"?>
<!DOCTYPE svg PUBLIC "-//W3C//DTD SVG 1.1//EN" "http://www.w3.org/Graphics/SVG/1.1/DTD/svg11.dtd">
<!-- Created with Vectornator (http://vectornator.io/) -->
<svg height="100%" stroke-miterlimit="10" style="fill-rule:nonzero;clip-rule:evenodd;stroke-linecap:round;stroke-linejoin:round;" version="1.1" viewBox="0 0 108 108" width="100%" xml:space="preserve" xmlns="http://www.w3.org/2000/svg" xmlns:vectornator="http://vectornator.io" xmlns:xlink="http://www.w3.org/1999/xlink">
<defs/>
<g id="Untitled" vectornator:layerName="Untitled">
<g opacity="1">
<path d="M37 70.0286L51 64.7751C52.6569 64.1534 55.3431 64.1534 57 64.7751L71 70.0286C72.6569 70.6504 72.6569 71.6584 71 72.2802L57 77.5337C55.3431 78.1554 52.6569 78.1554 51 77.5337L37 72.2802C35.3431 71.6584 35.3431 70.6504 37 70.0286Z" fill="#921634" fill-rule="nonzero" opacity="1" stroke="none"/>
<path d="M57 30.4663L71 35.7198C72.6569 36.3416 72.6569 37.3496 71 37.9714L57 43.2249C55.3431 43.8466 52.6569 43.8466 51 43.2249L37 37.9714C35.3431 37.3496 35.3431 36.3416 37 35.7198L51 30.4663C52.6569 29.8446 55.3431 29.8446 57 30.4663Z" fill="#921634" fill-rule="nonzero" opacity="1" stroke="none"/>
<path d="M74.4 41.4542L57.6 47.9507C55.6118 48.7196 52.3882 48.7196 50.4 47.9507L33.6 41.4542C31.6118 40.6853 30 41.8991 30 44.1652L30 63.8348C30 66.1009 31.6118 67.3147 33.6 66.5458L50.4 60.0493C52.3882 59.2804 55.6118 59.2804 57.6 60.0493L74.4 66.5458C76.3882 67.3147 78 66.1009 78 63.8348L78 44.1652C78 41.8991 76.3882 40.6853 74.4 41.4542Z" fill="#921634" fill-rule="nonzero" opacity="1" stroke="none"/>
</g>
</g>
</svg>
